Coordinates
version=1
nRows=24
nColumns=22
inDegrees=yes

Units are S.I. units (second, meters, Newtons, ...)
If the header above contains a line with 'inDegrees', this indicates whether rotational values are in degrees (yes) or radians (no).

endheader
time	pelvis_tilt	pelvis_list	pelvis_rotation	pelvis_tx	pelvis_ty	pelvis_tz	hip_flexion_r	hip_adduction_r	hip_rotation_r	knee_angle_r	ankle_angle_r	subtalar_angle_r	hip_flexion_l	hip_adduction_l	hip_rotation_l	knee_angle_l	ankle_angle_l	subtalar_angle_l	lumbar_extension	lumbar_bending	lumbar_rotation
      0.01000000	      1.89981846	     -2.28692559	     -3.28686661	      0.15391101	      0.93384463	      1.12342497	     -4.36632555	     -3.34045072	      1.30752111	     -3.94069925	      4.64927165	      8.51366799	     -5.09789871	     -7.18755031	    -13.36033657	     -4.90334458	      5.78497233	      5.85188923	     -4.41241633	     -1.44422702	      0.03023155
      0.02000000	      1.90314198	     -2.29383924	     -3.27090062	      0.15390996	      0.93383930	      1.12336981	     -4.36265517	     -3.33228833	      1.33399987	     -3.96074568	      4.68856586	      8.52542379	     -5.08690732	     -7.19751229	    -13.33456802	     -4.92640342	      5.78045497	      5.84832026	     -4.41479869	     -1.42546178	      0.01722507
      0.03000000	      1.90669307	     -2.29111184	     -3.26287862	      0.15397176	      0.93383664	      1.12330803	     -4.36637491	     -3.33558177	      1.33444259	     -3.96886774	      4.68997816	      8.52578583	     -5.09043798	     -7.19168917	    -13.33367637	     -4.93030818	      5.78182576	      5.84833601	     -4.40404811	     -1.41659664	      0.01964785
      0.04000000	      1.91196594	     -2.27289882	     -3.24568607	      0.15398269	      0.93382568	      1.12320953	     -4.34368038	     -3.35654071	      1.30322621	     -4.02824428	      4.73200529	      8.52762468	     -5.08473851	     -7.16954110	    -13.29983871	     -4.94455662	      5.81251771	      5.84734739	     -4.40618649	     -1.42196088	      0.02274177
      0.05000000	      1.91540442	     -2.26855928	     -3.23448041	      0.15405041	      0.93382206	      1.12312690	     -4.34852318	     -3.36249983	      1.30390266	     -4.03593077	      4.73445654	      8.52708487	     -5.08728899	     -7.16179757	    -13.29935824	     -4.94867870	      5.81234860	      5.84710303	     -4.39386725	     -1.40890560	      0.02460365
      0.06000000	      1.91077150	     -2.23657124	     -3.20006391	      0.15406712	      0.93379670	      1.12299601	     -4.32217485	     -3.39727129	      1.24945629	     -4.08753164	      4.80395451	      8.51272220	     -5.06001402	     -7.12695253	    -13.24560879	     -4.97470771	      5.82692954	      5.83750779	     -4.38195784	     -1.42594892	      0.00544743
      0.07000000	      1.91259881	     -2.23190054	     -3.18852850	      0.15411743	      0.93379337	      1.12290440	     -4.32508333	     -3.40465535	      1.24950583	     -4.09343204	      4.80483445	      8.51157347	     -5.06034929	     -7.11799645	    -13.24560160	     -4.97668506	      5.82642604	      5.83681106	     -4.37304100	     -1.40787265	      0.00827258
      0.08000000	      1.91407968	     -2.22650658	     -3.17777550	      0.15415508	      0.93379084	      1.12281924	     -4.32647543	     -3.41303393	      1.24719443	     -4.09996772	      4.80647468	      8.51011189	     -5.05901787	     -7.10885543	    -13.24285722	     -4.97985108	      5.82634347	      5.83580583	     -4.36635325	     -1.38975721	      0.01262139
      0.09000000	      1.88155223	     -2.20409788	     -3.13252133	      0.15414610	      0.93373617	      1.12269184	     -4.26201370	     -3.43379769	      1.13250819	     -4.16759966	      4.86091675	      8.47736717	     -4.99819029	     -7.08854542	    -13.16858664	     -5.00503698	      5.84037453	      5.79842924	     -4.32553284	     -1.39199329	     -0.00557830
      0.10000000	      1.88132267	     -2.19931735	     -3.12703841	      0.15414676	      0.93373724	      1.12262364	     -4.26079678	     -3.44198787	      1.13116866	     -4.16843873	      4.86144012	      8.47636148	     -4.99396446	     -7.08015034	    -13.16675288	     -5.00760321	      5.83979468	      5.79749768	     -4.32574587	     -1.37017751	      0.00034724
      0.11000000	      1.87238574	     -2.20111877	     -3.11824613	      0.15411719	      0.93373006	      1.12257765	     -4.23858702	     -3.44026703	      1.08699794	     -4.18827738	      4.86265561	      8.46891599	     -4.96840828	     -7.08474687	    -13.14046861	     -5.03168950	      5.83956161	      5.78608140	     -4.32103948	     -1.34637434	      0.04727629
      0.12000000	      1.81561446	     -2.20971376	     -3.08425463	      0.15407856	      0.93365349	      1.12250710	     -4.14607428	     -3.42498661	      1.00035615	     -4.25551482	      4.88841351	      8.44166960	     -4.87893723	     -7.10310760	    -13.11470896	     -5.06605407	      5.87219957	      5.74773764	     -4.25980464	     -1.30722771	      0.01929452
      0.13000000	      1.81292549	     -2.20845773	     -3.07985777	      0.15406054	      0.93365875	      1.12248463	     -4.13272681	     -3.42679968	      0.97140215	     -4.27137098	      4.88158446	      8.43837577	     -4.86566751	     -7.10318260	    -13.10033841	     -5.08246446	      5.87035646	      5.74525370	     -4.26240836	     -1.28747699	      0.06394806
      0.14000000	      1.80431924	     -2.21615580	     -3.06815472	      0.15404419	      0.93365754	      1.12246088	     -4.09921244	     -3.41666407	      0.90848444	     -4.31811713	      4.87705172	      8.43350705	     -4.84895102	     -7.11416025	    -13.09386744	     -5.08958627	      5.87197684	      5.74158375	     -4.25965942	     -1.25625246	      0.09328437
      0.15000000	      1.77101202	     -2.22360910	     -3.03347725	      0.15403547	      0.93361398	      1.12241367	     -4.03710173	     -3.40287628	      0.81566704	     -4.37852003	      4.90592769	      8.42266593	     -4.79130471	     -7.13038628	    -13.06668384	     -5.11599560	      5.88981743	      5.74047397	     -4.22611528	     -1.22237668	      0.06779494
      0.16000000	      1.76757362	     -2.22198864	     -3.01584164	      0.15403374	      0.93362106	      1.12239675	     -4.02309506	     -3.40164051	      0.77623010	     -4.40005881	      4.90634814	      8.41990693	     -4.77674975	     -7.13238675	    -13.05060636	     -5.12962482	      5.88551487	      5.74102718	     -4.22940165	     -1.20767167	      0.10328441
      0.17000000	      1.76181731	     -2.22485223	     -2.98834601	      0.15403486	      0.93362236	      1.12236042	     -3.98807098	     -3.39380140	      0.69117613	     -4.46244037	      4.91800786	      8.41486252	     -4.76200442	     -7.13844238	    -13.03303726	     -5.13362286	      5.88216188	      5.74237865	     -4.23165977	     -1.18464879	      0.10491750
      0.18000000	      1.75281945	     -2.21956074	     -2.94646110	      0.15405588	      0.93361389	      1.12230231	     -3.95784279	     -3.39482318	      0.59694363	     -4.51680960	      4.95456419	      8.40742119	     -4.73392654	     -7.13882826	    -12.98600928	     -5.15413207	      5.87898245	      5.74512816	     -4.22498132	     -1.17127873	      0.09658723
      0.19000000	      1.74305157	     -2.20749212	     -2.90249232	      0.15406699	      0.93360564	      1.12222799	     -3.92250294	     -3.40371794	      0.51560515	     -4.57767523	      4.98413178	      8.39728258	     -4.71025679	     -7.12892096	    -12.94441384	     -5.15841618	      5.87827777	      5.74586829	     -4.22177686	     -1.16329289	      0.06885323
      0.20000000	      1.74121431	     -2.19535053	     -2.85911265	      0.15409310	      0.93360818	      1.12215758	     -3.90222350	     -3.41312956	      0.45173230	     -4.62686109	      5.01387636	      8.38922895	     -4.69320020	     -7.11942100	    -12.90061631	     -5.17099654	      5.87020096	      5.74346560	     -4.22590081	     -1.16052655	      0.07149425
      0.21000000	      1.74131408	     -2.18887829	     -2.82859861	      0.15416667	      0.93361367	      1.12209822	     -3.90348157	     -3.41849110	      0.45329898	     -4.64005609	      5.01516793	      8.38844321	     -4.69243117	     -7.11302192	    -12.90237835	     -5.16708482	      5.87037102	      5.74331457	     -4.22463927	     -1.14889368	      0.07686129
      0.22000000	      1.74954128	     -2.15110206	     -2.74427485	      0.15421003	      0.93361340	      1.12194385	     -3.86950528	     -3.45589983	      0.29974141	     -4.75222940	      5.10852734	      8.37309697	     -4.68588163	     -7.07365198	    -12.79519403	     -5.15897449	      5.85491207	      5.73070939	     -4.24135469	     -1.17491689	      0.02849819
      0.23000000	      1.76042522	     -2.11823232	     -2.67600434	      0.15429310	      0.93362017	      1.12179570	     -3.86480556	     -3.49089012	      0.24731165	     -4.81330153	      5.15551473	      8.36107940	     -4.68741102	     -7.03693818	    -12.72066028	     -5.15464078	      5.84232643	      5.71382453	     -4.25535234	     -1.19187397	      0.00163761
      0.24000000	      1.78260109	     -2.08365006	     -2.60637809	      0.15441353	      0.93363345	      1.12163377	     -3.87456353	     -3.52899721	      0.20580118	     -4.87637723	      5.20531494	      8.35327946	     -4.70697330	     -6.99636882	    -12.65210205	     -5.14307945	      5.83164116	      5.69629651	     -4.27762176	     -1.21075903	     -0.02019337
